<?xml version="1.0" standalone="no"?>
<!DOCTYPE svg PUBLIC "-//W3C//DTD SVG 20010904//EN"
 "http://www.w3.org/TR/2001/REC-SVG-20010904/DTD/svg10.dtd">
<svg version="1.0" xmlns="http://www.w3.org/2000/svg"
 width="512.000000pt" height="512.000000pt" viewBox="0 0 512.000000 512.000000"
 preserveAspectRatio="xMidYMid meet">

<g transform="translate(0.000000,512.000000) scale(0.100000,-0.100000)"
fill="#000000" stroke="none">
<path d="M2030 5049 c-560 -74 -1019 -458 -1189 -991 -56 -177 -63 -244 -68
-683 l-5 -400 -355 -925 -356 -925 12 -45 c81 -308 748 -708 1491 -895 334
-84 631 -120 1000 -120 369 0 666 36 1000 120 743 187 1410 587 1491 895 l12
45 -356 925 -355 925 -5 400 c-5 439 -12 506 -68 683 -157 494 -559 858 -1077
974 -92 20 -125 21 -602 24 -278 1 -534 -2 -570 -7z m82 -1533 c105 -29 215
-76 307 -131 125 -76 157 -76 282 0 93 56 203 103 312 133 95 26 355 23 463
-6 270 -72 456 -243 603 -553 68 -143 711 -1799 711 -1831 0 -34 -34 -75 -69
-83 -50 -11 -85 16 -114 87 -14 35 -163 419 -332 853 -169 435 -328 835 -354
891 -64 134 -111 206 -190 287 -126 131 -258 187 -458 195 -188 7 -316 -27
-484 -130 -99 -60 -152 -78 -229 -78 -77 0 -130 18 -229 78 -168 103 -296 137
-484 130 -200 -8 -332 -64 -458 -195 -79 -81 -126 -153 -190 -287 -26 -56
-185 -456 -354 -891 -169 -434 -318 -818 -332 -853 -29 -71 -64 -98 -114 -87
-35 8 -69 49 -69 83 0 32 643 1688 711 1831 165 348 390 530 714 575 66 9 302
-2 357 -18z m-31 -441 c135 -33 211 -91 267 -205 26 -52 27 -64 30 -223 2 -93
1 -180 -2 -193 -4 -14 -23 -33 -49 -46 -41 -23 -48 -23 -455 -26 -407 -3 -414
-3 -458 19 -28 13 -56 37 -72 62 -38 57 -37 160 3 267 40 108 76 160 155 222
155 122 383 171 581 123z m1275 -1 c116 -24 263 -104 327 -178 71 -82 119
-210 121 -317 1 -66 -2 -80 -26 -116 -16 -25 -44 -49 -72 -62 -44 -22 -51 -22
-458 -19 -407 3 -414 3 -455 26 -26 13 -45 32 -49 46 -3 13 -4 100 -2 193 3
162 4 170 32 228 90 183 306 256 582 199z m-704 -888 c56 -20 111 -69 143
-128 29 -52 30 -57 33 -220 l4 -168 -272 0 -272 0 4 168 c3 163 4 168 33 220
51 93 132 141 235 141 30 0 72 -6 92 -13z m-182 -1056 l0 -361 -132 3 -133 3
-3 358 -2 357 135 0 135 0 0 -360z m448 3 l-3 -358 -132 -3 -133 -3 0 361 0
360 135 0 135 0 -2 -357z m-898 -98 l0 -265 -85 0 -85 0 0 182 0 183 82 82
c46 46 84 83 85 83 2 0 3 -119 3 -265z m1250 -82 l0 -183 -85 0 -85 0 0 267 0
268 85 -85 85 -85 0 -182z m-1724 -59 c99 -47 97 -199 -3 -241 -91 -38 -185
24 -185 121 0 101 97 163 188 120z m2138 2 c93 -39 106 -176 22 -231 -61 -40
-149 -23 -186 37 -40 66 -15 158 53 192 40 19 68 20 111 2z"/>
</g>
</svg>
